<svg xmlns="http://www.w3.org/2000/svg" width="20" height="20" viewBox="0 0 20 20" fill="none">
  <path fill-rule="evenodd" clip-rule="evenodd" d="M9.415 1.82932C9.74385 1.70628 10.1032 1.69024 10.4417 1.78348L10.585 1.82932L16.4183 4.01682C16.7141 4.12772 16.9723 4.3204 17.1627 4.5724C17.3532 4.8244 17.4682 5.12534 17.4942 5.44015L17.5 5.57765V10.0468C17.5 11.3972 17.1354 12.7225 16.4447 13.8828C15.754 15.0432 14.7628 15.9955 13.5758 16.6393L13.3542 16.7551L10.5592 18.1526C10.4053 18.2295 10.2372 18.2737 10.0654 18.2826C9.89361 18.2915 9.72184 18.2649 9.56083 18.2043L9.44083 18.1526L6.64583 16.7551C5.43801 16.1512 4.41565 15.2324 3.68667 14.0957C2.95769 12.9589 2.54915 11.6465 2.50417 10.2968L2.5 10.0468V5.57765C2.5 5.26192 2.58969 4.95269 2.75861 4.68596C2.92753 4.41922 3.16875 4.20596 3.45417 4.07098L3.58167 4.01682L9.415 1.82932ZM12.8608 7.19098L9.02917 11.0226L7.55583 9.54931C7.39947 9.39306 7.18743 9.30532 6.96637 9.3054C6.74531 9.30547 6.53334 9.39336 6.37708 9.54973C6.22083 9.7061 6.13309 9.91813 6.13316 10.1392C6.13324 10.3603 6.22113 10.5722 6.3775 10.7285L8.38083 12.7318C8.46596 12.817 8.56703 12.8845 8.67827 12.9306C8.78952 12.9767 8.90875 13.0005 9.02917 13.0005C9.14958 13.0005 9.26882 12.9767 9.38006 12.9306C9.4913 12.8845 9.59237 12.817 9.6775 12.7318L14.0392 8.36932C14.1188 8.29244 14.1822 8.20049 14.2259 8.09882C14.2696 7.99715 14.2926 7.8878 14.2935 7.77715C14.2945 7.6665 14.2734 7.55677 14.2315 7.45435C14.1896 7.35194 14.1277 7.2589 14.0495 7.18065C13.9713 7.10241 13.8782 7.04053 13.7758 6.99863C13.6734 6.95673 13.5636 6.93565 13.453 6.93661C13.3423 6.93757 13.233 6.96056 13.1313 7.00423C13.0297 7.04791 12.9377 7.11139 12.8608 7.19098Z" fill="url(#paint0_linear_454_789)"/>
  <defs>
    <linearGradient id="paint0_linear_454_789" x1="9.61493" y1="-6.13157" x2="26.0948" y2="8.79525" gradientUnits="userSpaceOnUse">
      <stop stop-color="#60A5FA"/>
      <stop offset="1" stop-color="#2563EB"/>
    </linearGradient>
  </defs>
</svg>
