<svg xmlns="http://www.w3.org/2000/svg" width="67" height="12" viewBox="0 0 67 12" fill="none">
  <path d="M1 7.375H2C2.55228 7.375 3 7.83671 3 8.40625V10.4688C3 11.0383 2.55228 11.5 2 11.5H1C0.447715 11.5 0 11.0383 0 10.4688V8.40625C0 7.83671 0.447715 7.375 1 7.375ZM5.66666 5.3125H6.66666C7.21894 5.3125 7.66666 5.77421 7.66666 6.34375V10.4688C7.66666 11.0383 7.21894 11.5 6.66666 11.5H5.66666C5.11437 11.5 4.66666 11.0383 4.66666 10.4688V6.34375C4.66666 5.77421 5.11437 5.3125 5.66666 5.3125ZM10.3333 2.90625H11.3333C11.8856 2.90625 12.3333 3.36796 12.3333 3.9375V10.4688C12.3333 11.0383 11.8856 11.5 11.3333 11.5H10.3333C9.78106 11.5 9.33334 11.0383 9.33334 10.4688V3.9375C9.33334 3.36796 9.78106 2.90625 10.3333 2.90625ZM15 0.5H16C16.5523 0.5 17 0.961706 17 1.53125V10.4688C17 11.0383 16.5523 11.5 16 11.5H15C14.4477 11.5 14 11.0383 14 10.4688V1.53125C14 0.961706 14.4477 0.5 15 0.5Z" fill="#2D3136"/>
  <path d="M31.0005 2.28448C33.3219 2.28457 35.5546 3.13869 37.2371 4.67028C37.3637 4.78852 37.5662 4.78703 37.691 4.66693L38.9021 3.4966C38.9653 3.43569 39.0005 3.35318 39 3.26733C38.9995 3.18148 38.9632 3.09937 38.8993 3.03917C34.4834 -1.01306 27.5168 -1.01306 23.1009 3.03917C23.0369 3.09933 23.0006 3.18141 23 3.26726C22.9994 3.35311 23.0346 3.43565 23.0977 3.4966L24.3091 4.66693C24.4338 4.78721 24.6365 4.78871 24.7631 4.67028C26.4458 3.13859 28.6788 2.28447 31.0005 2.28448ZM31.0005 6.09206C32.2759 6.09199 33.5059 6.54594 34.4514 7.36571C34.5792 7.48206 34.7807 7.47954 34.9053 7.36003L36.115 6.1897C36.1787 6.12831 36.2141 6.04503 36.2132 5.9585C36.2122 5.87196 36.1751 5.78939 36.1101 5.72926C33.231 3.16485 28.7723 3.16485 25.8932 5.72926C25.8281 5.78939 25.7911 5.872 25.7902 5.95857C25.7893 6.04513 25.8248 6.1284 25.8887 6.1897L27.098 7.36003C27.2226 7.47954 27.4241 7.48206 27.552 7.36571C28.4968 6.54648 29.7258 6.09257 31.0005 6.09206ZM33.3252 8.88514C33.3899 8.82434 33.4255 8.74068 33.4236 8.6539C33.4218 8.56712 33.3826 8.48492 33.3154 8.4267C31.979 7.34443 30.0218 7.34443 28.6855 8.4267C28.6182 8.48487 28.579 8.56705 28.577 8.65383C28.5751 8.7406 28.6107 8.82429 28.6754 8.88514L30.7682 10.9071C30.8295 10.9666 30.9132 11 31.0005 11C31.0877 11 31.1713 10.9666 31.2327 10.9071L33.3252 8.88514Z" fill="#2D3136"/>
  <path opacity="0.35" fill-rule="evenodd" clip-rule="evenodd" d="M60.748 0.5C61.8627 0.5 62.2744 0.597244 62.6839 0.81625C63.0523 1.01331 63.3415 1.3025 63.5386 1.67097C63.7576 2.08048 63.8548 2.49216 63.8548 3.6068V8.39319C63.8548 9.50784 63.7576 9.91952 63.5386 10.329C63.3415 10.6975 63.0523 10.9867 62.6839 11.1837C62.2744 11.4028 61.8627 11.5 60.748 11.5H44.6068C43.4922 11.5 43.0805 11.4028 42.671 11.1837C42.3025 10.9867 42.0133 10.6975 41.8163 10.329C41.5972 9.91952 41.5 9.50784 41.5 8.39319V3.6068C41.5 2.49216 41.5972 2.08048 41.8163 1.67097C42.0133 1.3025 42.3025 1.01331 42.671 0.81625C43.0805 0.597244 43.4922 0.5 44.6068 0.5H60.748Z" stroke="#2D3136"/>
  <path opacity="0.4" d="M65.4512 3.871V8.12907C66.3078 7.76843 66.8649 6.9295 66.8649 6.00003C66.8649 5.07057 66.3078 4.23164 65.4512 3.871Z" fill="#2D3136"/>
  <path d="M44.9162 2.09677H60.4384C61.0711 2.09677 61.3006 2.16265 61.5319 2.28635C61.7632 2.41005 61.9447 2.59158 62.0684 2.82288C62.1921 3.05418 62.258 3.28361 62.258 3.9163V8.08369C62.258 8.71638 62.1921 8.94581 62.0684 9.17711C61.9447 9.40842 61.7632 9.58994 61.5319 9.71364C61.3006 9.83735 61.0711 9.90322 60.4384 9.90322H44.9162C44.2835 9.90322 44.0541 9.83735 43.8228 9.71364C43.5915 9.58994 43.41 9.40842 43.2863 9.17711C43.1626 8.94581 43.0967 8.71638 43.0967 8.08369V3.9163C43.0967 3.28361 43.1626 3.05418 43.2863 2.82288C43.41 2.59158 43.5915 2.41005 43.8228 2.28635C44.0541 2.16265 44.2835 2.09677 44.9162 2.09677Z" fill="#2D3136"/>
</svg>
